<svg xmlns="http://www.w3.org/2000/svg" viewBox="0 0 64 64"><path fill="#37e288" d="M29.755,44.9a1.5,1.5,0,0,1-1-.385L18.522,35.308a1.5,1.5,0,0,1-.092-2.139l3.821-4.091a1.5,1.5,0,0,1,2.083-.107l4.513,3.937L38.942,21.6a1.552,1.552,0,0,1,1.142-.5,1.5,1.5,0,0,1,1.126.534l3.576,4.253a1.5,1.5,0,0,1,0,1.929L30.9,44.364a1.5,1.5,0,0,1-1.045.532C29.824,44.9,29.79,44.9,29.755,44.9Zm-8.09-10.8L29.6,41.246,41.679,26.854l-1.652-1.963L30.1,36.012a1.5,1.5,0,0,1-2.106.131l-4.538-3.958Z"/><path fill="#546e7a" d="M32,56.736A24.739,24.739,0,0,1,11.685,17.885,1.5,1.5,0,0,1,14.147,19.6a21.729,21.729,0,1,0,6.079-5.872A1.5,1.5,0,0,1,18.6,11.206,24.737,24.737,0,1,1,32,56.736Z"/><path fill="#546e7a" d="M16.218,16.446a1.5,1.5,0,0,1-1.02-2.6l.277-.252a1.5,1.5,0,1,1,2.005,2.231l-.243.222A1.5,1.5,0,0,1,16.218,16.446Z"/></svg>